<svg xmlns="http://www.w3.org/2000/svg" width="81.959" height="81.959" viewBox="0 0 81.959 81.959">
  <g id="mobile-app" transform="translate(-1 -1)">
    <path id="Path_2534" data-name="Path 2534" d="M82.959,43.3A18.53,18.53,0,0,0,68.418,25.233V7.61A6.617,6.617,0,0,0,61.808,1H27.438a6.617,6.617,0,0,0-6.61,6.61V22.151H13.187l-.8,3.194L9.569,23.651,2.5,30.717,4.192,33.54,1,34.337v10l3.194.8L2.5,47.954l7.068,7.067,2.821-1.693.8,3.192h7.642V76.349a6.617,6.617,0,0,0,6.61,6.61h34.37a6.617,6.617,0,0,0,6.61-6.61V61.369A18.53,18.53,0,0,0,82.959,43.3Zm-2.644,0a15.745,15.745,0,0,1-1.725,7.157,6.6,6.6,0,0,0-4.6-4.152l-5.569-1.393V44.6a6.617,6.617,0,0,0,2.644-5.26V36.693a6.61,6.61,0,0,0-7.2-6.584,6.8,6.8,0,0,0-6.023,6.857v2.37a6.617,6.617,0,0,0,2.644,5.26v.316L54.917,46.3a6.6,6.6,0,0,0-4.6,4.152,15.856,15.856,0,1,1,30-7.156ZM60.486,25.233a18.355,18.355,0,0,0-2.644.8V22.151H31.4V40.657H46.157a18.327,18.327,0,0,0,14.33,20.712v3.083H28.76V19.507H60.486ZM46.725,38.014H34.048V24.794H55.2v2.5A18.571,18.571,0,0,0,46.725,38.014ZM27.438,3.644h34.37A3.971,3.971,0,0,1,65.774,7.61v3.966h-42.3V7.61A3.971,3.971,0,0,1,27.438,3.644Zm-6.61,41.735a6.61,6.61,0,1,1,0-12.088Zm-5.577,8.5L14.608,51.3l-.268-.707-1.51-.613L9.977,51.693,5.829,47.543l1.713-2.854-.661-1.613-3.237-.808V36.4l3.233-.808.665-1.613L5.829,31.128l4.148-4.149,2.853,1.713,1.613-.656.809-3.241h5.577v5.691a9.254,9.254,0,1,0,0,17.7v5.691ZM61.808,80.315H27.438a3.971,3.971,0,0,1-3.966-3.966V72.383h42.3v3.966A3.971,3.971,0,0,1,61.808,80.315Zm3.966-10.575h-42.3V14.219h42.3V24.862c-.439-.032-.875-.067-1.322-.067s-.883.036-1.322.067v-8H26.116V67.1H63.13V61.741c.439.032.875.067,1.322.067s.883-.036,1.322-.067ZM64.452,59.164a15.818,15.818,0,0,1-11.9-5.405V52.717a3.963,3.963,0,0,1,3-3.848l7.572-1.892V43.129l-.657-.382a3.923,3.923,0,0,1-1.987-3.412v-2.37a4.143,4.143,0,0,1,3.608-4.224,3.965,3.965,0,0,1,4.324,3.95v2.644a3.923,3.923,0,0,1-1.987,3.412l-.657.382v3.848l7.572,1.892a3.963,3.963,0,0,1,3,3.848v1.042A15.818,15.818,0,0,1,64.452,59.164Z" transform="translate(0 0)" fill="#393185"/>
    <path id="Path_2535" data-name="Path 2535" d="M38,5h2.644V7.644H38Z" transform="translate(11.911 1.288)" fill="#393185"/>
    <path id="Path_2536" data-name="Path 2536" d="M28,5H38.575V7.644H28Z" transform="translate(8.692 1.288)" fill="#393185"/>
    <path id="Path_2537" data-name="Path 2537" d="M30,57H40.575v2.644H30Z" transform="translate(9.335 18.027)" fill="#393185"/>
    <path id="Path_2538" data-name="Path 2538" d="M44,57h2.644v2.644H44Z" transform="translate(13.842 18.027)" fill="#393185"/>
    <path id="Path_2539" data-name="Path 2539" d="M22,57h2.644v2.644H22Z" transform="translate(6.76 18.027)" fill="#393185"/>
    <path id="Path_2540" data-name="Path 2540" d="M24,33H35.9v2.644H24Z" transform="translate(7.404 10.301)" fill="#393185"/>
    <path id="Path_2541" data-name="Path 2541" d="M24,37H35.9v2.644H24Z" transform="translate(7.404 11.589)" fill="#393185"/>
    <path id="Path_2542" data-name="Path 2542" d="M24,41H35.9v2.644H24Z" transform="translate(7.404 12.877)" fill="#393185"/>
    <path id="Path_2543" data-name="Path 2543" d="M24,45H35.9v2.644H24Z" transform="translate(7.404 14.164)" fill="#393185"/>
    <path id="Path_2544" data-name="Path 2544" d="M57.966,23.507a3.956,3.956,0,0,0,1.322-7.688V5H56.644V15.819a3.956,3.956,0,0,0,1.322,7.688Zm0-5.288a1.322,1.322,0,1,1-1.322,1.322A1.323,1.323,0,0,1,57.966,18.219Z" transform="translate(17.061 1.288)" fill="#393185"/>
    <path id="Path_2545" data-name="Path 2545" d="M56,1h2.644V3.644H56Z" transform="translate(17.705)" fill="#393185"/>
    <path id="Path_2546" data-name="Path 2546" d="M11.966,45a3.956,3.956,0,0,0-1.322,7.688V63.507h2.644V52.688A3.956,3.956,0,0,0,11.966,45Zm0,5.288a1.322,1.322,0,1,1,1.322-1.322A1.323,1.323,0,0,1,11.966,50.288Z" transform="translate(2.253 14.164)" fill="#393185"/>
    <path id="Path_2547" data-name="Path 2547" d="M10,61h2.644v2.644H10Z" transform="translate(2.897 19.315)" fill="#393185"/>
  </g>
</svg>
