<svg xmlns="http://www.w3.org/2000/svg" width="80.704" height="80.714" viewBox="0 0 80.704 80.714">
  <g id="monitor" transform="translate(-8 -7.938)">
    <path id="Path_2557" data-name="Path 2557" d="M83.5,27.473H81.806a11.715,11.715,0,1,0-17.446,0H48.352V14.456a1.3,1.3,0,0,0-1.3-1.3H41.843a1.3,1.3,0,0,0-1.3,1.3V27.473h-1.3V9.25a1.3,1.3,0,0,0-1.3-1.3H32.732a1.3,1.3,0,0,0-1.3,1.3V27.473h-1.3V18.361a1.3,1.3,0,0,0-1.3-1.3H23.62a1.3,1.3,0,0,0-1.3,1.3v9.112H13.207A5.213,5.213,0,0,0,8,32.68V71.73a5.213,5.213,0,0,0,5.207,5.207H40.037L38.3,82.143H34.033a1.3,1.3,0,0,0-1.3,1.3v2.6H19.715a1.3,1.3,0,1,0,0,2.6H76.989a1.3,1.3,0,1,0,0-2.6H63.972v-2.6a1.3,1.3,0,0,0-1.3-1.3H58.4l-1.736-5.207H83.5A5.213,5.213,0,0,0,88.7,71.73V32.68A5.213,5.213,0,0,0,83.5,27.473ZM74.385,10.646A9.13,9.13,0,0,1,82.1,18.361H74.385Zm-.763,10.319H82.1A9.106,9.106,0,0,1,67.63,26.957Zm-9.65-1.3a9.126,9.126,0,0,1,7.81-9.017v8.479l-5.993,5.993a9.064,9.064,0,0,1-1.817-5.454ZM43.145,15.758h2.6V40.49h-2.6ZM39.24,30.076h1.3V40.49h-1.3ZM34.033,10.551h2.6V40.49h-2.6ZM30.128,30.076h1.3V40.49h-1.3ZM24.922,19.663h2.6V40.49h-2.6ZM61.369,84.747v1.3H35.335v-1.3Zm-20.322-2.6,1.736-5.207H53.921l1.736,5.207ZM86.1,71.73a2.607,2.607,0,0,1-2.6,2.6H13.207a2.607,2.607,0,0,1-2.6-2.6v-2.6H86.1Zm0-5.207H10.6V32.68a2.607,2.607,0,0,1,2.6-2.6h9.112V40.49h-1.3V32.68a1.3,1.3,0,0,0-1.3-1.3H14.508a1.3,1.3,0,0,0-1.3,1.3v9.112a1.3,1.3,0,0,0,1.3,1.3H56.162a1.3,1.3,0,0,0,1.3-1.3V32.68a1.3,1.3,0,0,0-1.3-1.3H50.955a1.3,1.3,0,0,0-1.3,1.3v7.81h-1.3V30.076H67.727a11.672,11.672,0,0,0,10.713,0H83.5a2.607,2.607,0,0,1,2.6,2.6ZM18.413,33.981V40.49h-2.6V33.981ZM52.257,40.49V33.981h2.6V40.49Z" fill="#393185"/>
    <path id="Path_2558" data-name="Path 2558" d="M49.112,392H41.3a1.3,1.3,0,1,0,0,2.6h7.81a1.3,1.3,0,1,0,0-2.6Z" transform="translate(-26.793 -321.572)" fill="#393185"/>
    <path id="Path_2559" data-name="Path 2559" d="M114.6,392h-1.3a1.3,1.3,0,1,0,0,2.6h1.3a1.3,1.3,0,1,0,0-2.6Z" transform="translate(-87.078 -321.572)" fill="#393185"/>
    <path id="Path_2560" data-name="Path 2560" d="M337.3,167.81a1.3,1.3,0,0,0,.92-.381l4.825-4.825h11.176a1.3,1.3,0,0,0,0-2.6H342.508a1.3,1.3,0,0,0-.92.381l-5.207,5.207a1.3,1.3,0,0,0,.92,2.222Z" transform="translate(-274.631 -127.32)" fill="#393185"/>
    <path id="Path_2561" data-name="Path 2561" d="M106.361,249.112a3.905,3.905,0,0,0-3.376,1.948l-13.627-7.95a3.905,3.905,0,0,0-7.665.1L67.979,253.492a3.9,3.9,0,0,0-6.749.355L47.677,248.2a3.907,3.907,0,1,0-.319,2.686l13.554,5.648a3.9,3.9,0,0,0,7.638-.215l13.713-10.285a3.9,3.9,0,0,0,6.648-.171l13.627,7.95a3.905,3.905,0,1,0,3.824-4.7Zm-61.179.007a1.3,1.3,0,1,1,0-.007Zm19.525,7.8a1.3,1.3,0,0,1-1.3-1.3v-.007a1.3,1.3,0,1,1,1.3,1.308Zm20.827-11.715a1.3,1.3,0,1,1,1.3-1.3,1.3,1.3,0,0,1-1.3,1.3Zm20.827,9.112a1.3,1.3,0,1,1,1.3-1.3A1.3,1.3,0,0,1,106.361,254.318Z" transform="translate(-26.769 -194.304)" fill="#393185"/>
    <path id="Path_2562" data-name="Path 2562" d="M330.413,344H321.3a1.3,1.3,0,1,0,0,2.6h9.112a1.3,1.3,0,1,0,0-2.6Z" transform="translate(-261.235 -281.382)" fill="#393185"/>
    <path id="Path_2563" data-name="Path 2563" d="M357.207,320h-3.9a1.3,1.3,0,1,0,0,2.6h3.9a1.3,1.3,0,0,0,0-2.6Z" transform="translate(-288.028 -261.287)" fill="#393185"/>
    <path id="Path_2564" data-name="Path 2564" d="M41.3,234.6H55.62a1.3,1.3,0,1,0,0-2.6H41.3a1.3,1.3,0,0,0,0,2.6Z" transform="translate(-26.793 -187.605)" fill="#393185"/>
    <path id="Path_2565" data-name="Path 2565" d="M153.3,234.6h1.3a1.3,1.3,0,1,0,0-2.6h-1.3a1.3,1.3,0,0,0,0,2.6Z" transform="translate(-120.57 -187.605)" fill="#393185"/>
  </g>
</svg>
