<svg xmlns="http://www.w3.org/2000/svg" width="79.815" height="79.815" viewBox="0 0 79.815 79.815">
  <g id="cloud-server-shield-protect-database" transform="translate(-2 -2)">
    <path id="Path_2566" data-name="Path 2566" d="M16.991,40a3.991,3.991,0,1,0,3.991,3.991A3.991,3.991,0,0,0,16.991,40Zm0,5.321a1.33,1.33,0,1,1,1.33-1.33A1.33,1.33,0,0,1,16.991,45.321Z" transform="translate(3.633 12.549)" fill="#393185"/>
    <path id="Path_2567" data-name="Path 2567" d="M69.847,47.228H52.527a18.191,18.191,0,0,0,1.836-2.66h6.172a14.621,14.621,0,0,0,4.377-28.574,11.96,11.96,0,0,0-15.431-6.5,17.265,17.265,0,0,0-31.075,5.986,14.633,14.633,0,0,0,2.222,29.092H26.8a18.191,18.191,0,0,0,1.836,2.66H11.316a1.33,1.33,0,0,0-1.33,1.33V80.485a1.33,1.33,0,0,0,1.33,1.33H69.847a1.33,1.33,0,0,0,1.33-1.33V48.559A1.33,1.33,0,0,0,69.847,47.228ZM25.616,41.907H20.628a11.972,11.972,0,0,1-1-23.891A1.342,1.342,0,0,0,20.84,16.9a14.609,14.609,0,0,1,27-5.042,1.33,1.33,0,0,0,1.756.505,9.3,9.3,0,0,1,13.063,5.161,1.338,1.338,0,0,0,.918.851,11.962,11.962,0,0,1-3.046,23.532H55.547a17.38,17.38,0,0,0,1-5.733V24.614a1.32,1.32,0,0,0-.878-1.25L41.034,18.043a1.321,1.321,0,0,0-.9,0L25.5,23.364a1.32,1.32,0,0,0-.878,1.25v11.56a17.38,17.38,0,0,0,1,5.733Zm1.663-5.733V25.545l13.3-4.842,13.3,4.842V36.174A14.659,14.659,0,0,1,49.095,47l-8.514,7.742L32.068,47a14.659,14.659,0,0,1-4.789-10.828Zm41.238,42.98H12.646v-13.3h55.87Zm0-15.963H12.646v-13.3H31.283l8.407,7.636a1.321,1.321,0,0,0,1.783,0l8.407-7.636H68.516Z" transform="translate(1.326 0)" fill="#393185"/>
    <path id="Path_2568" data-name="Path 2568" d="M49,40h2.66v2.66H49Z" transform="translate(15.522 12.549)" fill="#393185"/>
    <path id="Path_2569" data-name="Path 2569" d="M49,44h2.66v2.66H49Z" transform="translate(15.522 13.87)" fill="#393185"/>
    <path id="Path_2570" data-name="Path 2570" d="M16.991,59.981A3.991,3.991,0,1,0,13,55.991,3.991,3.991,0,0,0,16.991,59.981Zm0-5.321a1.33,1.33,0,1,1-1.33,1.33A1.33,1.33,0,0,1,16.991,54.661Z" transform="translate(3.633 16.512)" fill="#393185"/>
    <path id="Path_2571" data-name="Path 2571" d="M24.991,59.981A3.991,3.991,0,1,0,21,55.991,3.991,3.991,0,0,0,24.991,59.981Zm0-5.321a1.33,1.33,0,1,1-1.33,1.33A1.33,1.33,0,0,1,24.991,54.661Z" transform="translate(6.275 16.512)" fill="#393185"/>
    <path id="Path_2572" data-name="Path 2572" d="M24.991,40a3.991,3.991,0,1,0,3.991,3.991A3.991,3.991,0,0,0,24.991,40Zm0,5.321a1.33,1.33,0,1,1,1.33-1.33A1.33,1.33,0,0,1,24.991,45.321Z" transform="translate(6.275 12.549)" fill="#393185"/>
    <path id="Path_2573" data-name="Path 2573" d="M32.991,59.981A3.991,3.991,0,1,0,29,55.991,3.991,3.991,0,0,0,32.991,59.981Zm0-5.321a1.33,1.33,0,1,1-1.33,1.33A1.33,1.33,0,0,1,32.991,54.661Z" transform="translate(8.917 16.512)" fill="#393185"/>
    <path id="Path_2574" data-name="Path 2574" d="M49,52h2.66v2.66H49Z" transform="translate(15.522 16.512)" fill="#393185"/>
    <path id="Path_2575" data-name="Path 2575" d="M49,56h2.66v2.66H49Z" transform="translate(15.522 17.833)" fill="#393185"/>
    <path id="Path_2576" data-name="Path 2576" d="M43,52h2.66v2.66H43Z" transform="translate(13.54 16.512)" fill="#393185"/>
    <path id="Path_2577" data-name="Path 2577" d="M43,56h2.66v2.66H43Z" transform="translate(13.54 17.833)" fill="#393185"/>
    <path id="Path_2578" data-name="Path 2578" d="M37,52h2.66v2.66H37Z" transform="translate(11.559 16.512)" fill="#393185"/>
    <path id="Path_2579" data-name="Path 2579" d="M37,56h2.66v2.66H37Z" transform="translate(11.559 17.833)" fill="#393185"/>
    <path id="Path_2580" data-name="Path 2580" d="M43,40h2.66v2.66H43Z" transform="translate(13.54 12.549)" fill="#393185"/>
    <path id="Path_2581" data-name="Path 2581" d="M43,44h2.66v2.66H43Z" transform="translate(13.54 13.87)" fill="#393185"/>
    <path id="Path_2582" data-name="Path 2582" d="M37,44h2.66v2.66H37Z" transform="translate(11.559 13.87)" fill="#393185"/>
    <path id="Path_2583" data-name="Path 2583" d="M2,42.33V59.623a1.33,1.33,0,0,0,1.33,1.33H8.651V58.293H4.66V43.66H8.651V41H3.33A1.33,1.33,0,0,0,2,42.33Z" transform="translate(0 12.88)" fill="#393185"/>
    <path id="Path_2584" data-name="Path 2584" d="M62.321,41H57v2.66h3.991V58.293H57v2.661h5.321a1.33,1.33,0,0,0,1.33-1.33V42.33A1.33,1.33,0,0,0,62.321,41Z" transform="translate(18.164 12.88)" fill="#393185"/>
    <path id="Path_2585" data-name="Path 2585" d="M28.174,28.284l-1.881,1.881,5.321,5.321a1.33,1.33,0,0,0,1.881,0l9.312-9.312-1.881-1.881-8.371,8.371Z" transform="translate(8.023 7.362)" fill="#393185"/>
  </g>
</svg>
