<svg id="coding" xmlns="http://www.w3.org/2000/svg" width="79.992" height="79.992" viewBox="0 0 79.992 79.992">
  <g id="Group_172" data-name="Group 172">
    <g id="Group_171" data-name="Group 171">
      <path id="Path_2524" data-name="Path 2524" d="M72.18,11.873h-.625V6.562a6.562,6.562,0,1,0-13.124,0v5.312H52.755a1.562,1.562,0,0,0,0,3.125h5.676V18.54a1.562,1.562,0,1,0,3.125,0V11.718h6.874V38.453H61.556V29.685a1.562,1.562,0,1,0-3.125,0V40.016a1.561,1.561,0,0,0,.217.794l3.608,6.112H31.507a1.562,1.562,0,1,0,0,3.125H71.243a1.562,1.562,0,0,0,0-3.125H67.73l3.608-6.112a1.563,1.563,0,0,0,.217-.794V15h.625a4.692,4.692,0,0,1,4.687,4.687V53.119H11.561V41.578H42.808a5.318,5.318,0,0,0,5.312-5.312V5.312A5.318,5.318,0,0,0,42.808,0H5.312A5.318,5.318,0,0,0,0,5.312V36.266a5.318,5.318,0,0,0,5.312,5.312H8.437V59.056a7.821,7.821,0,0,0,7.812,7.812h20.16v3.753a7.82,7.82,0,0,0-7.659,7.808,1.563,1.563,0,0,0,1.562,1.562H58.129a1.563,1.563,0,0,0,1.562-1.562,7.82,7.82,0,0,0-7.659-7.808V66.868H72.18a7.821,7.821,0,0,0,7.812-7.812V19.685A7.821,7.821,0,0,0,72.18,11.873Zm-4.924,29.7-2.263,3.833-2.263-3.833ZM68.431,8.593H61.556V6.562a3.437,3.437,0,0,1,6.874,0ZM3.125,5.312A2.19,2.19,0,0,1,5.312,3.125h37.5A2.19,2.19,0,0,1,45,5.312v5.937H3.125ZM5.312,38.453a2.19,2.19,0,0,1-2.187-2.187V14.374H45V36.266a2.19,2.19,0,0,1-2.187,2.187ZM56.3,76.867H32.141a4.7,4.7,0,0,1,4.42-3.125H51.879A4.7,4.7,0,0,1,56.3,76.867Zm-16.766-6.25V66.868h9.374v3.749ZM76.867,59.056a4.692,4.692,0,0,1-4.687,4.687H16.248a4.692,4.692,0,0,1-4.687-4.687V56.244H76.867Z" fill="#393185"/>
    </g>
  </g>
  <g id="Group_174" data-name="Group 174" transform="translate(23.904 5.624)">
    <g id="Group_173" data-name="Group 173">
      <path id="Path_2525" data-name="Path 2525" d="M169.112,36h-14.55a1.562,1.562,0,1,0,0,3.125h14.55a1.562,1.562,0,1,0,0-3.125Z" transform="translate(-153 -36)" fill="#393185"/>
    </g>
  </g>
  <g id="Group_176" data-name="Group 176" transform="translate(10.813 5.624)">
    <g id="Group_175" data-name="Group 175">
      <path id="Path_2526" data-name="Path 2526" d="M71.876,36.458a1.562,1.562,0,1,0,.458,1.1A1.575,1.575,0,0,0,71.876,36.458Z" transform="translate(-69.209 -36)" fill="#393185"/>
    </g>
  </g>
  <g id="Group_178" data-name="Group 178" transform="translate(5.481 5.624)">
    <g id="Group_177" data-name="Group 177">
      <path id="Path_2527" data-name="Path 2527" d="M37.747,36.458a1.561,1.561,0,1,0,.458,1.1A1.574,1.574,0,0,0,37.747,36.458Z" transform="translate(-35.08 -36)" fill="#393185"/>
    </g>
  </g>
  <g id="Group_180" data-name="Group 180" transform="translate(16.144 5.624)">
    <g id="Group_179" data-name="Group 179">
      <path id="Path_2528" data-name="Path 2528" d="M106,36.458a1.561,1.561,0,1,0,.458,1.1A1.571,1.571,0,0,0,106,36.458Z" transform="translate(-103.33 -36)" fill="#393185"/>
    </g>
  </g>
  <g id="Group_182" data-name="Group 182" transform="translate(7.499 18.554)">
    <g id="Group_181" data-name="Group 181">
      <path id="Path_2529" data-name="Path 2529" d="M51.771,125.674l4.249-4.249a1.562,1.562,0,1,0-2.209-2.209l-5.354,5.354a1.562,1.562,0,0,0,0,2.209l5.354,5.354a1.562,1.562,0,0,0,2.209-2.21Z" transform="translate(-47.999 -118.758)" fill="#393185"/>
    </g>
  </g>
  <g id="Group_184" data-name="Group 184" transform="translate(32.143 18.554)">
    <g id="Group_183" data-name="Group 183">
      <path id="Path_2530" data-name="Path 2530" d="M213.754,124.568l-5.354-5.354a1.562,1.562,0,0,0-2.21,2.209l4.249,4.249-4.249,4.249a1.562,1.562,0,1,0,2.209,2.21l5.354-5.354a1.562,1.562,0,0,0,0-2.209Z" transform="translate(-205.733 -118.757)" fill="#393185"/>
    </g>
  </g>
  <g id="Group_186" data-name="Group 186" transform="translate(18.718 17.476)">
    <g id="Group_185" data-name="Group 185">
      <path id="Path_2531" data-name="Path 2531" d="M129.72,112.072a1.562,1.562,0,0,0-2.139.555l-7.559,12.863a1.562,1.562,0,1,0,2.694,1.583l7.559-12.863A1.562,1.562,0,0,0,129.72,112.072Z" transform="translate(-119.806 -111.857)" fill="#393185"/>
    </g>
  </g>
  <g id="Group_188" data-name="Group 188" transform="translate(58.432 22.602)">
    <g id="Group_187" data-name="Group 187">
      <path id="Path_2532" data-name="Path 2532" d="M376.667,145.128a1.561,1.561,0,1,0,.458,1.1A1.567,1.567,0,0,0,376.667,145.128Z" transform="translate(-374 -144.67)" fill="#393185"/>
    </g>
  </g>
  <g id="Group_190" data-name="Group 190" transform="translate(22.785 46.922)">
    <g id="Group_189" data-name="Group 189">
      <path id="Path_2533" data-name="Path 2533" d="M147.646,300.333H147.4a1.562,1.562,0,0,0,0,3.125h.244a1.562,1.562,0,0,0,0-3.125Z" transform="translate(-145.84 -300.333)" fill="#393185"/>
    </g>
  </g>
</svg>
