<svg xmlns="http://www.w3.org/2000/svg" width="91.205" height="79.765" viewBox="0 0 91.205 79.765">
  <g id="computer" transform="translate(-8 -56)">
    <path id="Path_2548" data-name="Path 2548" d="M93.321,56H13.884A6.087,6.087,0,0,0,8,62.256v53.176a6.087,6.087,0,0,0,5.884,6.256H44.206l-1.962,6.256H37.421a1.52,1.52,0,0,0-1.471,1.564v3.128H22.711a1.567,1.567,0,0,0,0,3.128H87.437a1.567,1.567,0,0,0,0-3.128H71.255v-3.128a1.52,1.52,0,0,0-1.471-1.564H64.961L63,121.689H93.321a6.087,6.087,0,0,0,5.884-6.256V62.256A6.087,6.087,0,0,0,93.321,56ZM68.313,131.073v1.564H38.892v-1.564Zm-22.967-3.128,1.962-6.256H59.9l1.962,6.256Zm50.917-12.512a3.043,3.043,0,0,1-2.942,3.128H13.884a3.043,3.043,0,0,1-2.942-3.128V112.3H96.263ZM32.945,95.1l-.552,14.076H30.68L30.128,95.1Zm-2.615-3.128.982-6.256h.449l.982,6.256Zm1.206-9.384c-1.594,0-2.942-2.149-2.942-4.692,0-1.605,1.541-3.937,2.938-5.582,1.26,1.486,2.946,3.861,2.946,5.582C34.479,80.44,33.131,82.588,31.537,82.588ZM47.546,79.46l.173.37v1.195H41.834V79.83l.173-.37Zm-4.067-3.128,1.3-2.759,1.3,2.759Zm4.24,7.82v24.829a1.714,1.714,0,0,0,.013.2h-5.91a1.714,1.714,0,0,0,.013-.2V84.152ZM60.958,77.9h4.413v3.128H63.9a1.567,1.567,0,0,0,0,3.128h1.471V87.28H60.958a1.567,1.567,0,0,0,0,3.128h4.413v3.128H63.9a1.567,1.567,0,0,0,0,3.128h1.471v3.128H60.958a1.567,1.567,0,0,0,0,3.128h4.413v6.256h-10.3V71.64h10.3v3.128H60.958a1.567,1.567,0,0,0,0,3.128ZM78.61,96.664v12.317a1.715,1.715,0,0,0,.013.2h-5.91a1.719,1.719,0,0,0,.013-.2V96.664Zm-5.884-3.128V92.342l2.942-6.256,2.942,6.256v1.195Zm23.537,15.64H81.54a1.71,1.71,0,0,0,.013-.2V91.972a1.662,1.662,0,0,0-.154-.7l-4.413-9.384a1.435,1.435,0,0,0-2.633,0l-4.413,9.384a1.662,1.662,0,0,0-.154.7v17.009a1.715,1.715,0,0,0,.013.2H68.313v-39.1a1.52,1.52,0,0,0-1.471-1.564H53.6a1.52,1.52,0,0,0-1.471,1.564v39.1H50.648a1.717,1.717,0,0,0,.013-.2V79.46a1.662,1.662,0,0,0-.154-.7l-4.413-9.384a1.435,1.435,0,0,0-2.633,0L39.047,78.76a1.662,1.662,0,0,0-.154.7v29.521a1.716,1.716,0,0,0,.013.2H35.338l.61-15.576c0-.035,0-.07,0-.108v-.047q-.005-.083-.018-.164v0L34.569,84.6a8.6,8.6,0,0,0,2.852-6.7c0-4.02-4.382-8.471-4.882-8.966a1.411,1.411,0,0,0-2,0c-.5.495-4.882,4.946-4.882,8.966A8.6,8.6,0,0,0,28.5,84.6l-1.361,8.682v0q-.013.082-.018.164v.047c0,.037,0,.072,0,.108l.61,15.576H10.942V62.256a3.043,3.043,0,0,1,2.942-3.128H93.321a3.043,3.043,0,0,1,2.942,3.128Z" transform="translate(0 0)" fill="#393185"/>
    <path id="Path_2549" data-name="Path 2549" d="M55.116,352H42.159a2.159,2.159,0,1,0,0,4.319H55.116a2.159,2.159,0,1,0,0-4.319Z" transform="translate(-23.362 -239.031)" fill="#393185"/>
    <path id="Path_2550" data-name="Path 2550" d="M116.319,352h-2.159a2.159,2.159,0,1,0,0,4.319h2.159a2.159,2.159,0,1,0,0-4.319Z" transform="translate(-85.331 -239.031)" fill="#393185"/>
    <path id="Path_2551" data-name="Path 2551" d="M202.159,208A2.159,2.159,0,0,0,200,210.159v23.754a2.159,2.159,0,1,0,4.319,0V210.159A2.159,2.159,0,0,0,202.159,208Z" transform="translate(-157.245 -126.154)" fill="#393185"/>
    <path id="Path_2552" data-name="Path 2552" d="M370.159,272A2.159,2.159,0,0,0,368,274.159v6.478a2.159,2.159,0,1,0,4.319,0v-6.478A2.159,2.159,0,0,0,370.159,272Z" transform="translate(-294.835 -175.519)" fill="#393185"/>
    <path id="Path_2553" data-name="Path 2553" d="M42.159,92.319H59.435a2.159,2.159,0,1,0,0-4.319H42.159a2.159,2.159,0,1,0,0,4.319Z" transform="translate(-23.362 -23.362)" fill="#393185"/>
    <path id="Path_2554" data-name="Path 2554" d="M42.159,116.319h4.319a2.159,2.159,0,1,0,0-4.319H42.159a2.159,2.159,0,0,0,0,4.319Z" transform="translate(-23.362 -40.884)" fill="#393185"/>
    <path id="Path_2555" data-name="Path 2555" d="M426.159,300.319H434.8a2.159,2.159,0,1,0,0-4.319h-8.638a2.159,2.159,0,0,0,0,4.319Z" transform="translate(-346.389 -193.809)" fill="#393185"/>
    <path id="Path_2556" data-name="Path 2556" d="M450.159,276.319h2.159a2.159,2.159,0,1,0,0-4.319h-2.159a2.159,2.159,0,1,0,0,4.319Z" transform="translate(-363.911 -174.428)" fill="#393185"/>
  </g>
</svg>
