<svg xmlns="http://www.w3.org/2000/svg" width="81.796" height="81.796" viewBox="0 0 81.796 81.796">
  <g id="human-resources" transform="translate(-1 -1)">
    <path id="Path_2586" data-name="Path 2586" d="M49,49H62.193v2.639H49Z" transform="translate(15.326 15.326)" fill="#393185"/>
    <path id="Path_2587" data-name="Path 2587" d="M53,53h2.639v2.639H53Z" transform="translate(16.603 16.603)" fill="#393185"/>
    <path id="Path_2588" data-name="Path 2588" d="M57,53h2.639v2.639H57Z" transform="translate(17.88 16.603)" fill="#393185"/>
    <path id="Path_2589" data-name="Path 2589" d="M49,53h2.639v2.639H49Z" transform="translate(15.326 16.603)" fill="#393185"/>
    <path id="Path_2590" data-name="Path 2590" d="M5,9H18.193v2.639H5Z" transform="translate(1.277 2.554)" fill="#393185"/>
    <path id="Path_2591" data-name="Path 2591" d="M13,13h2.639v2.639H13Z" transform="translate(3.831 3.831)" fill="#393185"/>
    <path id="Path_2592" data-name="Path 2592" d="M5,13H7.639v2.639H5Z" transform="translate(1.277 3.831)" fill="#393185"/>
    <path id="Path_2593" data-name="Path 2593" d="M9,13h2.639v2.639H9Z" transform="translate(2.554 3.831)" fill="#393185"/>
    <path id="Path_2594" data-name="Path 2594" d="M64.326,46.818V37.94H78.838A3.963,3.963,0,0,0,82.8,33.982V4.958A3.963,3.963,0,0,0,78.838,1h-34.3a3.963,3.963,0,0,0-3.958,3.958v9.235H24.747V6.277H1v18.47H24.747V16.831H40.579V19.47h-3.6l-1.156,3.607a19.7,19.7,0,0,0-2.941,1.212l-3.363-1.731-6.958,6.958,1.731,3.363A19.81,19.81,0,0,0,23.08,35.82l-3.61,1.158v8.878H4.958A3.963,3.963,0,0,0,1,49.814V78.838A3.963,3.963,0,0,0,4.958,82.8h34.3a3.963,3.963,0,0,0,3.958-3.958V69.6H59.049v7.916H82.8V59.049H59.049v7.916H43.217V64.326h3.6l1.156-3.607a19.729,19.729,0,0,0,2.941-1.212l3.363,1.731,6.958-6.958L59.5,50.917a19.811,19.811,0,0,0,1.212-2.941ZM22.109,22.109H3.639V8.916h18.47ZM61.687,61.687h18.47V74.88H61.687ZM53.772,41.9a11.887,11.887,0,0,1-10.554,11.8v-3.88a3.963,3.963,0,0,0-3.958-3.958H30.713A11.844,11.844,0,0,1,40.579,30.1v3.88a3.963,3.963,0,0,0,3.958,3.958h8.546A11.809,11.809,0,0,1,53.772,41.9Zm-1.214-6.6a9.246,9.246,0,0,1,5.172-7.012v.416a3.958,3.958,0,0,0,7.916,0v-.416A9.246,9.246,0,0,1,70.817,35.3Zm2.533-20.31a4.761,4.761,0,0,1,4.756-4.756h.521v3.143l-3.09,1.545A3.938,3.938,0,0,0,55.459,16.8,4.748,4.748,0,0,1,55.091,14.991Zm5.277,12.5a8.3,8.3,0,0,1,2.639,0v1.214a1.319,1.319,0,0,1-2.639,0ZM67.916,16.8A3.938,3.938,0,0,0,66.1,14.921l-3.09-1.544V10.235h.521a4.761,4.761,0,0,1,4.756,4.756,4.711,4.711,0,0,1-.368,1.806Zm-7.548,7.95a2.641,2.641,0,0,1-2.639-2.639V18.462a1.311,1.311,0,0,1,.73-1.179l3.228-1.615,3.228,1.615a1.311,1.311,0,0,1,.73,1.179v3.647a2.641,2.641,0,0,1-2.639,2.639ZM43.217,4.958a1.321,1.321,0,0,1,1.319-1.319h34.3a1.321,1.321,0,0,1,1.319,1.319V33.982A1.321,1.321,0,0,1,78.838,35.3H73.483a11.888,11.888,0,0,0-6.786-9.43,5.255,5.255,0,0,0,1.587-3.763v-.92l1.4-2.1A7.4,7.4,0,0,0,63.528,7.6H59.848a7.4,7.4,0,0,0-6.154,11.5l1.4,2.1v.92a5.255,5.255,0,0,0,1.587,3.763,11.888,11.888,0,0,0-6.786,9.43H44.537a1.321,1.321,0,0,1-1.319-1.319ZM22.109,38.9l3.108-1,.193-.682a17.163,17.163,0,0,1,1.52-3.689l.347-.617-1.491-2.9,4.238-4.236,2.895,1.489.619-.346a17.01,17.01,0,0,1,3.69-1.521l.682-.193.993-3.107h1.677v5.344a14.466,14.466,0,0,0-12.631,18.4H22.109ZM14.193,68.284v-6.6a7.923,7.923,0,0,1,6.6-7.8v3.024L17.7,58.459A3.936,3.936,0,0,0,15.512,62v3.647A5.255,5.255,0,0,0,17.1,69.408a11.847,11.847,0,0,0-2.082,1.249A3.876,3.876,0,0,1,14.193,68.284Zm6.6,0a2.641,2.641,0,0,1-2.639-2.639V62a1.311,1.311,0,0,1,.73-1.179L22.109,59.2l3.228,1.615A1.311,1.311,0,0,1,26.066,62v3.647a2.641,2.641,0,0,1-2.639,2.639Zm1.319,2.639a9.182,9.182,0,0,1,3.017.516l-.943,2.123H20.035l-.943-2.123A9.182,9.182,0,0,1,22.109,70.922Zm.9,5.277-.9,2.028-.9-2.028Zm4.463-3.545a9.223,9.223,0,0,1,3.871,7.5h-7.2Zm2.552-4.371a3.87,3.87,0,0,1-.825,2.372,11.928,11.928,0,0,0-2.082-1.249,5.25,5.25,0,0,0,1.587-3.761V62a3.938,3.938,0,0,0-2.187-3.54l-3.09-1.545V53.89a7.921,7.921,0,0,1,6.6,7.8Zm-13.28,4.371,3.334,7.5h-7.2A9.223,9.223,0,0,1,16.744,72.655Zm23.834,6.184a1.321,1.321,0,0,1-1.319,1.319H33.982a11.809,11.809,0,0,0-2.843-7.689,6.5,6.5,0,0,0,1.524-4.185v-6.6a10.554,10.554,0,1,0-21.109,0v6.6a6.5,6.5,0,0,0,1.524,4.185,11.809,11.809,0,0,0-2.843,7.689H4.958a1.321,1.321,0,0,1-1.319-1.319V49.814a1.321,1.321,0,0,1,1.319-1.319h34.3a1.321,1.321,0,0,1,1.319,1.319Zm18-32.949-.193.682a17.163,17.163,0,0,1-1.52,3.689l-.347.617,1.491,2.9-4.238,4.236-2.9-1.489-.617.346a16.968,16.968,0,0,1-3.69,1.521l-.682.193-.993,3.108H43.217V56.343a14.466,14.466,0,0,0,12.631-18.4h5.839v6.954Z" fill="#393185"/>
    <path id="Path_2595" data-name="Path 2595" d="M5,39H7.639v2.639H5Z" transform="translate(1.277 12.133)" fill="#393185"/>
    <path id="Path_2596" data-name="Path 2596" d="M27,39h2.639v2.639H27Z" transform="translate(8.302 12.133)" fill="#393185"/>
    <path id="Path_2597" data-name="Path 2597" d="M35,5h2.639V7.639H35Z" transform="translate(10.856 1.277)" fill="#393185"/>
    <path id="Path_2598" data-name="Path 2598" d="M57,5h2.639V7.639H57Z" transform="translate(17.88 1.277)" fill="#393185"/>
  </g>
</svg>
